<svg xmlns="http://www.w3.org/2000/svg" width="48" height="48" viewBox="0 0 48 48" fill="none">
  <path d="M24 6C22.2012 6 20.4023 6.29883 18.75 6.75L21.4688 9.28125C22.3711 9.12891 23.0977 9 24 9C28.2363 9 31.9805 10.7754 34.6875 13.5H30V16.5H39V7.5H36V10.5938C32.8125 7.73438 28.6465 6 24 6ZM7.5 9V12H10.6875C7.82812 15.1758 6 19.3359 6 24C6 25.6523 6.31055 27.2812 6.60938 28.7812L9.14062 26.25C8.98828 25.5 9 24.75 9 24C9 19.7754 10.7695 16.0781 13.5 13.3125V18H16.5V9H7.5ZM41.25 19.2188L38.8594 21.8906C39.0117 22.6406 39 23.25 39 24C39 28.2188 37.2656 31.957 34.5 34.6875V30H31.5V39H40.5V36H37.4531C40.3242 32.8008 42 28.6113 42 24C42 22.3477 41.7012 20.7188 41.25 19.2188ZM9 31.5V40.5H12V37.3125C15.1875 40.207 19.3594 42 24 42C25.5 42 27.0117 41.8418 28.3594 41.3906L25.5 39H24C19.7637 39 16.0195 37.2246 13.3125 34.5H18V31.5H9Z" fill="#006171"/>
</svg>