<svg xmlns="http://www.w3.org/2000/svg" width="48" height="48" viewBox="0 0 48 48" fill="none">
  <path d="M31.5 6L24 18H28.5V27L36 15H31.5V6ZM17.2119 25.5C12.416 25.5 6.06445 28.1396 6.06445 28.1396L7.16895 30.9287C7.16895 30.9287 13.6258 28.5 17.2119 28.5C18.6622 28.5 21.1409 29.3775 23.1621 30.4102C24.1727 30.9265 25.0895 31.4723 25.7578 31.916C26.092 32.1379 26.3638 32.3355 26.543 32.4785C26.585 32.5121 26.6017 32.5343 26.6338 32.5664C26.6829 32.6116 26.7322 32.6561 26.7715 32.707L26.8711 32.8594C27.0611 33.2165 27.0538 33.653 26.7979 34.0195C26.5064 34.4337 25.9928 34.5941 25.5146 34.4326L18.9873 31.3271L17.6982 34.0342L24.4365 37.2393L24.5127 37.2656C26.248 37.8738 28.194 37.2532 29.2529 35.748V35.7451C29.8504 34.8946 30.0595 33.8886 29.9502 32.9209L37.1133 31.752H37.1162C37.912 31.6195 38.6608 32.0723 38.915 32.8359C39.1845 33.6451 38.816 34.4855 38.0391 34.8281C35.8413 35.7965 32.2649 37.2443 29.0889 38.4375C27.5008 39.0341 26.01 39.5684 24.8496 39.9463C24.2694 40.1352 23.7686 40.2836 23.3994 40.3799C23.0302 40.4762 22.72 40.5 22.8721 40.5C22.9664 40.5 22.3419 40.3567 21.6357 39.9756C20.9296 39.5945 20.067 39.0478 19.1807 38.4844C18.2944 37.921 17.3853 37.3427 16.5117 36.8789C15.6381 36.4151 14.8602 36 13.7988 36C11.3449 36 9.15527 36.9492 9.15527 36.9492L10.3008 39.7236C10.3008 39.7236 12.1637 39 13.7988 39C13.7597 39 14.3868 39.1474 15.1025 39.5273C15.8183 39.9073 16.6858 40.454 17.5693 41.0156C18.4528 41.5772 19.3546 42.1555 20.2119 42.6182C21.0693 43.0808 21.8072 43.5 22.8721 43.5C23.3841 43.5 23.6956 43.4038 24.1582 43.2832C24.6208 43.1626 25.1626 42.9974 25.7783 42.7969C27.0097 42.3959 28.5289 41.8507 30.1436 41.2441C33.3729 40.0309 36.9633 38.5804 39.249 37.5732C41.4181 36.6168 42.5102 34.1345 41.7627 31.8896C41.0486 29.7452 38.8561 28.4248 36.627 28.793H36.6211L28.415 30.1318C28.3899 30.1117 28.3503 30.0877 28.3242 30.0674C28.2926 30.0439 28.2689 30.0139 28.2363 29.9912L27.7969 29.6807L27.7939 29.6865C27.663 29.595 27.5628 29.5145 27.416 29.417C26.6391 28.9011 25.6423 28.3079 24.5273 27.7383C22.2975 26.599 19.6737 25.5 17.2119 25.5Z" fill="#006171"/>
</svg>