<svg xmlns="http://www.w3.org/2000/svg" width="48" height="48" viewBox="0 0 48 48" fill="none">
  <path d="M24 3C22.1151 3 20.7891 4.33996 20.124 6H16.5H15H7.5V43.5H25.4209C24.9499 42.5565 24.5842 41.553 24.3457 40.5H10.5V9H15V15H33V9H37.5V24C38.532 24 39.534 24.1252 40.5 24.3457V6H33H31.5H27.876C27.2109 4.33996 25.8849 3 24 3ZM24 6C24.8475 6 25.5 6.65245 25.5 7.5V9H27H30V12H18V9H22.5V7.5C22.5 6.65245 23.1525 6 24 6ZM18 19.5V21.2842C17.7825 21.3629 17.5711 21.4592 17.3701 21.5684C17.1691 21.6775 16.9773 21.8007 16.7959 21.9375C16.4331 22.211 16.1129 22.5377 15.8467 22.9043C15.5804 23.2709 15.368 23.6776 15.2227 24.1143C15.15 24.3326 15.0964 24.5566 15.0586 24.7881C15.0207 25.0196 15 25.2581 15 25.5C15 25.8075 15.0332 26.1082 15.0938 26.3994C15.1543 26.6906 15.2426 26.9716 15.3574 27.2402C15.4723 27.5088 15.6136 27.7652 15.7764 28.0049C15.9391 28.2445 16.1228 28.4685 16.3271 28.6729C16.9403 29.286 17.727 29.7245 18.6006 29.9062C18.8918 29.9668 19.1925 30 19.5 30C19.7137 30 19.914 30.0404 20.0947 30.1143C20.2754 30.1881 20.4353 30.2966 20.5693 30.4307C20.7034 30.5647 20.8119 30.7246 20.8857 30.9053C20.9596 31.086 21 31.2862 21 31.5C21 32.1413 20.6368 32.6643 20.0947 32.8857C19.914 32.9596 19.7137 33 19.5 33C19.0725 33 18.6988 32.8375 18.4307 32.5693C18.2966 32.4353 18.1881 32.2754 18.1143 32.0947C18.0404 31.914 18 31.7138 18 31.5H15C15 32.9513 15.7075 34.242 16.7959 35.0625C16.9773 35.1993 17.1691 35.3225 17.3701 35.4316C17.5711 35.5408 17.7825 35.6371 18 35.7158V37.5H21V35.7158C22.5225 35.1646 23.6764 33.8326 23.9414 32.2119C23.9793 31.9804 24 31.7419 24 31.5C24 31.1925 23.9668 30.8918 23.9062 30.6006C23.8457 30.3094 23.7574 30.0284 23.6426 29.7598C23.4129 29.2226 23.0816 28.7359 22.6729 28.3271C22.4685 28.1228 22.2445 27.9391 22.0049 27.7764C21.7652 27.6136 21.5088 27.4723 21.2402 27.3574C20.703 27.1277 20.115 27 19.5 27C18.645 27 18 26.355 18 25.5C18 25.2862 18.0404 25.086 18.1143 24.9053C18.1881 24.7246 18.2966 24.5647 18.4307 24.4307C18.5647 24.2966 18.7246 24.1881 18.9053 24.1143C19.086 24.0404 19.2863 24 19.5 24C20.355 24 21 24.645 21 25.5H24C24 23.565 22.74 21.9142 21 21.2842V19.5H18ZM37.5 27C31.7188 27 27 31.7188 27 37.5C27 43.2812 31.7188 48 37.5 48C43.2812 48 48 43.2812 48 37.5C48 31.7188 43.2812 27 37.5 27ZM37.5 30C41.6599 30 45 33.3401 45 37.5C45 41.6599 41.6599 45 37.5 45C33.3401 45 30 41.6599 30 37.5C30 33.3401 33.3401 30 37.5 30ZM36 33V38.3994L33.4512 40.9512L35.5488 43.0488L39 39.6006V33H36Z" fill="#006171"/>
</svg>