<svg xmlns="http://www.w3.org/2000/svg" width="48" height="48" viewBox="0 0 48 48" fill="none">
  <path d="M24 4.5C13.248 4.5 4.5 13.248 4.5 24C4.5 34.752 13.248 43.5 24 43.5C34.752 43.5 43.5 34.752 43.5 24C43.5 20.25 42.4336 16.7578 40.5938 13.7812L38.3906 15.9844C39.7266 18.3633 40.5 21.082 40.5 24C40.5 33.0996 33.0996 40.5 24 40.5C14.9004 40.5 7.5 33.0996 7.5 24C7.5 14.9004 14.9004 7.5 24 7.5C26.918 7.5 29.6367 8.27344 32.0156 9.60938L34.2188 7.40625C31.2422 5.56641 27.75 4.5 24 4.5ZM40.9219 4.92188L22.9219 22.9219C22.6523 23.1914 22.5 23.584 22.5 24C22.5 24.8262 23.1738 25.5 24 25.5C24.416 25.5 24.8086 25.3477 25.0781 25.0781L43.0781 7.07812L40.9219 4.92188ZM24 10.5C16.5586 10.5 10.5 16.5586 10.5 24C10.5 31.4414 16.5586 37.5 24 37.5C31.4414 37.5 37.5 31.4414 37.5 24C37.5 21.9199 37.0312 19.9512 36.1875 18.1875L33.8906 20.4844C34.2832 21.5859 34.5 22.7637 34.5 24C34.5 29.7891 29.7891 34.5 24 34.5C18.2109 34.5 13.5 29.7891 13.5 24C13.5 18.2109 18.2109 13.5 24 13.5C25.2363 13.5 26.4141 13.7168 27.5156 14.1094L29.8125 11.8125C28.0488 10.9688 26.0801 10.5 24 10.5ZM24 16.5C19.8633 16.5 16.5 19.8633 16.5 24C16.5 28.1367 19.8633 31.5 24 31.5C28.1367 31.5 31.5 28.1367 31.5 24C31.5 23.6484 31.4531 23.3086 31.4062 22.9688L27.1875 27.1875C26.7891 27.5859 26.3262 27.9023 25.8281 28.125C25.8047 28.1367 25.7578 28.1133 25.7344 28.125C25.5117 28.2188 25.3125 28.3008 25.0781 28.3594C25.0254 28.3711 24.9434 28.3945 24.8906 28.4062C24.5977 28.4648 24.3047 28.5 24 28.5C23.3789 28.5 22.8047 28.3535 22.2656 28.125C20.6543 27.4395 19.5 25.8633 19.5 24C19.5 23.6953 19.5352 23.4023 19.5938 23.1094C19.6055 23.0566 19.6289 22.9746 19.6406 22.9219C19.6992 22.6875 19.7812 22.4883 19.875 22.2656C19.8867 22.2422 19.8633 22.1953 19.875 22.1719C20.0977 21.668 20.4141 21.2109 20.8125 20.8125L25.0312 16.5938C24.6914 16.5469 24.3516 16.5 24 16.5Z" fill="#006171"/>
</svg>